<?xml version="1.0" encoding="UTF-8"?>
<svg id="react" xmlns="http://www.w3.org/2000/svg" viewBox="0 0 120 120">
  <defs>
    <style>
      .cls-1 {
        font-family: Roboto-Black, Roboto;
        font-size: 48.59px;
        font-weight: 800;
        isolation: isolate;
      }

      .cls-2 {
        fill: #222;
      }

      .cls-2, .cls-3, .cls-4 {
        stroke-width: 0px;
      }

      .cls-3 {
        fill: #fff;
      }

      .cls-4 {
        fill: #00d8ff;
      }
    </style>
  </defs>
  <path class="cls-2" d="m0,0h120v120H0V0Z"/>
  <g>
    <circle class="cls-4" cx="60" cy="85.67" r="6.02"/>
    <path class="cls-4" d="m60,100.04c-4.09,0-8.03-.24-11.56-.72-3.77-.48-7.14-1.2-10.03-2.25-3.69-1.28-6.74-2.89-8.99-4.82-2.41-2.09-3.69-4.33-3.69-6.58s1.2-4.33,3.53-6.34c2.09-1.77,5.06-3.37,8.51-4.57,2.97-1.04,6.42-1.85,10.19-2.41,3.85-.56,7.87-.88,12.04-.88,8.11,0,15.89,1.12,21.91,3.21,3.53,1.2,6.58,2.81,8.67,4.57,2.41,2.01,3.69,4.17,3.69,6.42s-1.36,4.57-3.85,6.66c-2.25,1.85-5.46,3.53-9.23,4.82-2.89.96-6.18,1.69-9.79,2.17-3.61.48-7.46.72-11.4.72Zm0-24.64c-3.93,0-7.79.24-11.4.8-3.53.56-6.74,1.28-9.47,2.25-3.05,1.04-5.54,2.41-7.3,3.85-1.36,1.2-2.17,2.41-2.17,3.37,0,1.04.88,2.33,2.33,3.61,1.85,1.61,4.49,2.97,7.7,4.09,2.65.88,5.7,1.61,9.23,2.01,3.45.48,7.14.64,11.08.64,7.62,0,14.69-.96,19.9-2.73,3.37-1.12,6.1-2.49,8.03-4.09,1.52-1.28,2.41-2.57,2.41-3.61,0-.96-.8-2.25-2.25-3.37-1.77-1.44-4.33-2.81-7.46-3.93-5.62-1.85-12.92-2.89-20.63-2.89Z"/>
    <path class="cls-4" d="m46.28,116.25c-1.28,0-2.49-.32-3.45-.88-1.85-1.12-3.21-3.21-3.69-6.26-.48-2.65-.4-6.02.32-9.63.56-3.13,1.61-6.5,2.97-10.03,1.44-3.61,3.21-7.22,5.22-10.83h0c4.01-6.98,8.91-13.16,13.72-17.42,2.81-2.49,5.7-4.25,8.35-5.22,2.89-1.04,5.46-1.04,7.38,0,2.01,1.12,3.29,3.45,3.85,6.66.48,2.89.32,6.5-.48,10.43-.64,2.97-1.61,6.18-3.05,9.55-1.36,3.37-3.05,6.74-5.06,10.19-2.09,3.53-4.17,6.82-6.42,9.71-2.33,3.05-4.65,5.54-6.9,7.54-2.89,2.57-5.94,4.41-8.67,5.38-1.44.56-2.81.8-4.09.8Zm27.45-57.14c-.72,0-1.69.16-2.73.56-2.17.8-4.65,2.33-7.14,4.49-4.49,3.93-9.07,9.71-12.92,16.37h0c-1.93,3.37-3.61,6.9-4.98,10.27-1.28,3.37-2.25,6.5-2.81,9.39-.56,3.13-.72,6.02-.32,8.27.32,1.85.96,3.05,1.85,3.53s2.49.4,4.33-.24c2.33-.8,4.82-2.41,7.38-4.65,2.09-1.85,4.25-4.17,6.42-6.98,2.09-2.73,4.17-5.86,6.1-9.23,3.77-6.58,6.5-13.16,7.62-18.62.72-3.45.88-6.58.48-8.99-.32-2.01-1.04-3.37-1.93-3.93-.32-.16-.8-.24-1.36-.24Z"/>
    <path class="cls-4" d="m73.72,116.33c-1.2,0-2.49-.24-3.85-.72-2.57-.88-5.46-2.65-8.27-5.06-2.41-2.09-4.82-4.65-7.22-7.62-2.41-3.05-4.74-6.42-6.74-9.95h0c-4.09-6.98-6.98-14.29-8.19-20.55-.72-3.69-.88-7.06-.4-9.79.56-3.05,1.85-5.3,3.69-6.34,1.93-1.12,4.65-1.12,7.7,0,2.73,1.04,5.78,2.97,8.75,5.62,2.25,2.01,4.49,4.49,6.82,7.38,2.17,2.89,4.33,6.02,6.34,9.47,2.09,3.53,3.77,7.06,5.22,10.35,1.44,3.53,2.49,6.82,3.13,9.79.72,3.77.88,7.3.32,10.19-.56,3.13-1.93,5.38-3.85,6.5-1.04.4-2.17.72-3.45.72Zm-22.71-25.36c2.01,3.37,4.09,6.58,6.42,9.47,2.25,2.81,4.49,5.22,6.66,7.06,5.22,4.49,9.39,5.46,11,4.57.88-.48,1.61-1.93,2.01-3.85.48-2.41.32-5.38-.32-8.75-.56-2.73-1.52-5.78-2.89-8.99-1.28-3.21-2.97-6.5-4.98-9.95-3.69-6.5-8.11-12.2-12.28-15.81-2.65-2.33-5.22-4.01-7.54-4.9-1.85-.72-3.45-.8-4.33-.32-.8.48-1.52,1.85-1.85,3.69-.4,2.25-.24,5.22.4,8.43,1.12,5.78,3.85,12.68,7.7,19.34h0Z"/>
  </g>
  <rect class="cls-3" x="2.71" y="2.65" width="114.26" height="49.18"/>
  <text class="cls-1" transform="translate(4.77 43) scale(.57 1)"><tspan x="0" y="0">BANNER</tspan></text>
</svg>